HIERARCHY
ROOT Hips
{
	OFFSET 62.890800 8.863803 43.568401
	CHANNELS 6 Xposition Yposition Zposition Zrotation Xrotation Yrotation
	JOINT Chest
	{
		OFFSET -0.160400 1.630001 7.806301
		CHANNELS 6 Xposition Yposition Zposition Zrotation Xrotation Yrotation
		JOINT Chest2
		{
			OFFSET 0.000000 0.000000 3.197998
			CHANNELS 6 Xposition Yposition Zposition Zrotation Xrotation Yrotation
			JOINT Neck
			{
				OFFSET 0.000000 0.000001 7.440701
				CHANNELS 6 Xposition Yposition Zposition Zrotation Xrotation Yrotation
				JOINT Head
				{
					OFFSET 0.000000 0.000000 2.173901
					CHANNELS 6 Xposition Yposition Zposition Zrotation Xrotation Yrotation
					End Site
					{
						OFFSET 0.000000 0.000001 10.420303
					}
				}
			}
			JOINT LeftCollar
			{
				OFFSET 2.426399 -1.880099 4.759399
				CHANNELS 6 Xposition Yposition Zposition Zrotation Xrotation Yrotation
				JOINT LeftShoulder
				{
					OFFSET 4.420197 0.000000 0.000000
					CHANNELS 6 Xposition Yposition Zposition Zrotation Xrotation Yrotation
					JOINT LeftElbow
					{
						OFFSET 0.000000 -0.000001 -10.347099
						CHANNELS 6 Xposition Yposition Zposition Zrotation Xrotation Yrotation
						JOINT LeftWrist
						{
							OFFSET 0.000000 -0.000001 -12.496300
							CHANNELS 6 Xposition Yposition Zposition Zrotation Xrotation Yrotation
							End Site
							{
								OFFSET 0.000000 0.000000 -2.173901
							}
						}
					}
				}
			}
			JOINT RightCollar
			{
				OFFSET -2.781502 -1.903799 5.072601
				CHANNELS 6 Xposition Yposition Zposition Zrotation Xrotation Yrotation
				JOINT RightShoulder
				{
					OFFSET -4.012100 0.000000 0.000000
					CHANNELS 6 Xposition Yposition Zposition Zrotation Xrotation Yrotation
					JOINT RightElbow
					{
						OFFSET 0.000000 -0.000001 -10.346600
						CHANNELS 6 Xposition Yposition Zposition Zrotation Xrotation Yrotation
						JOINT RightWrist
						{
							OFFSET 0.000000 -0.000001 -12.562599
							CHANNELS 6 Xposition Yposition Zposition Zrotation Xrotation Yrotation
							End Site
							{
								OFFSET 0.000000 0.000000 -2.173901
							}
						}
					}
				}
			}
		}
	}
	JOINT LeftHip
	{
		OFFSET 2.047997 -0.047200 -2.693199
		CHANNELS 6 Xposition Yposition Zposition Zrotation Xrotation Yrotation
		JOINT LeftKnee
		{
			OFFSET 0.000000 -0.000001 -18.824400
			CHANNELS 6 Xposition Yposition Zposition Zrotation Xrotation Yrotation
			JOINT LeftAnkle
			{
				OFFSET 0.000000 -0.000002 -19.078199
				CHANNELS 6 Xposition Yposition Zposition Zrotation Xrotation Yrotation
				End Site
				{
					OFFSET 0.000000 -9.342100 0.000001
				}
			}
		}
	}
	JOINT RightHip
	{
		OFFSET -2.129898 -0.022300 -2.538300
		CHANNELS 6 Xposition Yposition Zposition Zrotation Xrotation Yrotation
		JOINT RightKnee
		{
			OFFSET 0.000000 -0.000001 -18.644600
			CHANNELS 6 Xposition Yposition Zposition Zrotation Xrotation Yrotation
			JOINT RightAnkle
			{
				OFFSET 0.000000 -0.000002 -18.801399
				CHANNELS 6 Xposition Yposition Zposition Zrotation Xrotation Yrotation
				End Site
				{
					OFFSET 0.000000 -8.914600 0.000001
				}
			}
		}
	}
}
MOTION
Frames: 6
Frame Time: 0.041667
64.417198 36.456104 41.061680 -432.983723 11.105448 35.839041 -0.160399 1.629993 7.806308 -33.336217 0.865122 24.707586 0.000018 -0.000006 3.197999 8.631772 -6.822396 0.376374 0.000009 0.000002 7.440696 -35.848986 -7.914676 6.164440 -0.000018 0.000004 2.173906 -3.984379 -8.196486 -3.190758 2.426411 -1.880105 4.759395 -187.323320 180.323087 -176.697718 4.420197 0.000002 -0.000004 -61.752936 -4.130718 -36.014058 0.000002 0.000006 -10.347088 533.193308 -145.837065 -531.693781 0.000009 -0.000007 -12.496297 68.700474 6.314046 360.783542 -2.781496 -1.903799 5.072600 -185.435347 -183.326061 181.649646 -4.012102 0.000003 0.000001 61.378778 -17.800178 534.512463 0.000006 0.000001 -10.346601 -438.907082 -13.166028 -17.428385 0.000012 -0.000005 -12.562600 1819.677688 -24.005560 7.144817 2.047992 -0.047203 -2.693193 521.313150 -4.324878 80.786405 0.000003 -0.000003 -18.824392 170.732285 172.530169 -200.800513 0.000000 0.000003 -19.078201 -510.419381 20.691377 69.560566 -2.129898 -0.022306 -2.538293 -361.846975 -7.298333 -8.901155 -0.000006 0.000000 -18.644600 155.106780 159.982264 178.980613 -0.000001 -0.000008 -18.801399 25.667567 18.196476 9.662437
64.421303 36.467098 41.071373 -432.917607 11.091945 35.738231 -0.160399 1.629997 7.806304 -33.218260 0.877463 24.708564 0.000001 -0.000008 3.197998 8.596948 -6.811221 0.374726 -0.000000 0.000007 7.440701 -35.906868 -7.934701 6.132208 -0.000005 0.000000 2.173908 -3.966594 -8.191734 -3.193221 2.426401 -1.880104 4.759395 -187.389901 180.270330 -176.795540 4.420196 0.000008 -0.000010 -61.728081 -4.186884 -35.950410 -0.000002 0.000001 -10.347087 533.042334 -145.778353 -531.777656 -0.000001 0.000001 -12.496297 68.775709 6.218815 360.747561 -2.781500 -1.903796 5.072602 -185.409419 -183.254126 181.649701 -4.012099 -0.000000 -0.000003 61.292656 -17.875865 534.396514 0.000001 -0.000003 -10.346587 -439.149963 -13.232429 -17.578535 -0.000005 0.000003 -12.562600 1820.315027 -24.320729 6.897477 2.047993 -0.047192 -2.693194 521.267306 -4.414631 80.671180 -0.000000 0.000010 -18.824400 170.705921 172.435953 -200.770446 -0.000004 -0.000002 -19.078199 -510.281357 20.719884 69.543408 -2.129899 -0.022298 -2.538298 -361.940412 -7.368066 -8.874116 -0.000001 0.000001 -18.644600 155.378512 159.775405 179.072015 -0.000003 -0.000006 -18.801397 25.331927 18.084234 9.887299
64.425499 36.478207 41.080471 -432.835426 11.094873 35.627018 -0.160400 1.629994 7.806308 -33.075949 0.891413 24.721542 0.000003 0.000002 3.198003 8.547731 -6.798213 0.372109 -0.000006 0.000003 7.440699 -35.952480 -7.954088 6.090032 -0.000015 0.000005 2.173906 -3.952592 -8.183052 -3.191632 2.426403 -1.880105 4.759391 -187.470128 180.202288 -176.898976 4.420189 -0.000002 -0.000001 -61.697980 -4.244355 -35.896872 -0.000002 0.000003 -10.347084 532.944853 -145.720542 -531.819347 0.000000 -0.000007 -12.496295 68.807121 6.108233 360.689941 -2.781504 -1.903808 5.072600 -185.390431 -183.170360 181.653922 -4.012102 -0.000003 0.000000 61.177916 -17.955408 534.252807 0.000003 -0.000005 -10.346594 -439.462185 -13.308690 -17.754605 0.000007 -0.000008 -12.562598 1821.026241 -24.648177 6.653285 2.047994 -0.047203 -2.693196 521.189824 -4.532325 80.556378 -0.000001 -0.000003 -18.824398 170.728938 172.350466 -200.751677 -0.000008 -0.000005 -19.078201 -510.161582 20.738071 69.532480 -2.129901 -0.022303 -2.538294 -362.036199 -7.444489 -8.830190 -0.000000 -0.000005 -18.644598 155.557217 159.568819 179.169700 -0.000002 0.000003 -18.801394 25.055460 17.987633 10.154837
64.429703 36.489208 41.088875 -432.734995 11.115878 35.503467 -0.160398 1.630008 7.806304 -32.913247 0.909297 24.748101 0.000003 -0.000002 3.198001 8.484284 -6.787924 0.367816 0.000004 0.000010 7.440701 -35.984548 -7.972425 6.039059 -0.000010 0.000003 2.173904 -3.940679 -8.166721 -3.187111 2.426409 -1.880094 4.759399 -187.556380 180.117853 -176.999052 4.420187 0.000003 -0.000002 -61.663487 -4.294458 -35.856116 -0.000004 -0.000003 -10.347086 532.869940 -145.655423 -531.835904 -0.000002 -0.000002 -12.496300 68.818555 5.988456 360.624836 -2.781499 -1.903793 5.072607 -185.369654 -183.076978 181.646695 -4.012098 0.000000 -0.000005 61.905105 -18.081768 534.403727 0.000005 0.000004 -10.346594 -439.020627 -13.341490 -17.939152 -0.000020 -0.000011 -12.562601 1821.807178 -24.992313 6.398200 2.047993 -0.047194 -2.693205 521.076443 -4.680216 80.440675 0.000000 0.000001 -18.824387 170.790779 172.267466 -200.744642 -0.000007 -0.000005 -19.078203 -510.042956 20.749114 69.518082 -2.129896 -0.022293 -2.538296 -362.134608 -7.526981 -8.766966 0.000005 -0.000000 -18.644602 155.612897 159.368572 179.279885 -0.000003 -0.000007 -18.801399 24.862544 17.914215 10.465663
64.433891 36.500210 41.096779 -432.618581 11.154430 35.368215 -0.160406 1.629994 7.806304 -32.727012 0.931882 24.787545 0.000019 0.000001 3.198001 8.406004 -6.785662 0.361470 -0.000010 0.000002 7.440701 -36.005288 -7.988282 5.983963 -0.000013 0.000002 2.173904 -3.927433 -8.139918 -3.179382 2.426404 -1.880103 4.759402 -187.644831 180.009881 -177.080208 4.420188 -0.000002 -0.000005 -61.626837 -4.326207 -35.837552 -0.000007 0.000003 -10.347094 532.817374 -145.579758 -531.831423 0.000001 0.000002 -12.496293 68.793221 5.879191 360.572271 -2.781508 -1.903805 5.072602 -185.338235 -182.981519 181.613678 -4.012100 0.000004 -0.000002 61.721435 -18.145707 534.221443 0.000006 -0.000002 -10.346601 -439.511226 -13.436648 -18.184095 0.000003 -0.000010 -12.562595 1822.650733 -25.359278 6.128201 2.047985 -0.047202 -2.693197 520.922901 -4.870247 80.323230 0.000001 0.000004 -18.824398 170.868083 172.174589 -200.750325 0.000001 0.000001 -19.078199 -509.881708 20.758668 69.480120 -2.129901 -0.022301 -2.538303 -362.232089 -7.614827 -8.686096 -0.000007 0.000000 -18.644604 155.567107 159.178365 179.399618 -0.000003 -0.000004 -18.801394 24.734523 17.859563 10.810515
64.438103 36.510906 41.104172 -432.486567 11.215118 35.226161 -0.160388 1.630005 7.806304 -32.525917 0.957635 24.828378 -0.000003 -0.000000 3.198000 8.317421 -6.791900 0.353541 -0.000001 0.000001 7.440706 -36.008614 -8.007477 5.931324 -0.000008 0.000004 2.173902 -3.911444 -8.100220 -3.171173 2.426402 -1.880102 4.759395 -187.722654 179.886569 -177.128293 4.420197 0.000001 0.000001 -61.597023 -4.324162 -35.840731 0.000012 -0.000000 -10.347097 532.807921 -145.494422 -531.797108 -0.000008 -0.000002 -12.496298 68.704661 5.776448 360.534349 -2.781498 -1.903805 5.072608 -186.266922 -185.468760 181.333408 -4.012097 -0.000005 0.000007 63.293915 -19.145319 536.625997 -0.000005 0.000006 -10.346600 -440.060510 -13.536663 -18.470739 0.000002 -0.000005 -12.562601 1823.573956 -25.758312 5.839107 2.047995 -0.047193 -2.693203 520.718596 -5.117899 80.207909 0.000001 0.000003 -18.824398 170.944636 172.063011 -200.767223 -0.000011 -0.000005 -19.078199 -509.638226 20.770930 69.402303 -2.129890 -0.022295 -2.538301 -362.331864 -7.712851 -8.594596 0.000006 -0.000002 -18.644604 155.395095 159.001135 179.539637 0.000002 -0.000012 -18.801399 24.693652 17.826391 11.183600
